<svg width="454" height="87" viewBox="0 0 454 87" fill="none" xmlns="http://www.w3.org/2000/svg">
<path d="M67.9023 38.3574V39.2852C67.8372 42.0195 67.5443 44.8516 67.0234 47.7812C66.5352 50.7109 65.8353 53.6406 64.9238 56.5703C64.0124 59.5 62.9219 62.3971 61.6523 65.2617C60.3828 68.1263 58.9505 70.8607 57.3555 73.4648C55.793 76.1016 54.1003 78.5592 52.2773 80.8379C50.4544 83.1491 48.5339 85.1836 46.5156 86.9414L39.2402 82.7422C40.3796 80.8216 41.4049 78.722 42.3164 76.4434C43.2604 74.1973 44.1068 71.8372 44.8555 69.3633C45.6042 66.8893 46.2389 64.3503 46.7598 61.7461C47.3132 59.1419 47.7689 56.554 48.127 53.9824C48.485 51.4108 48.7454 48.888 48.9082 46.4141C49.1035 43.9076 49.2012 41.5312 49.2012 39.2852C49.2012 37.5273 49.1849 35.5417 49.1523 33.3281C49.1523 31.082 49.0221 28.8034 48.7617 26.4922C48.5339 24.181 48.1432 21.9349 47.5898 19.7539C47.0365 17.5404 46.2064 15.571 45.0996 13.8457C44.0254 12.1204 42.6257 10.737 40.9004 9.69531C39.2077 8.65365 37.0918 8.13281 34.5527 8.13281C32.3066 8.13281 30.3698 8.52344 28.7422 9.30469C27.1471 10.0534 25.7799 11.0788 24.6406 12.3809C23.5339 13.6504 22.6387 15.1315 21.9551 16.8242C21.304 18.5169 20.7832 20.3073 20.3926 22.1953C20.0345 24.0508 19.7904 25.9388 19.6602 27.8594C19.5625 29.7474 19.5137 31.5378 19.5137 33.2305V46.8535H40.5586V54.9102H19.5137V72H0.128906V36.2578C0.128906 31.1471 0.942708 26.3945 2.57031 22C4.19792 17.6055 6.49284 13.7969 9.45508 10.5742C12.4499 7.31901 16.0306 4.77995 20.1973 2.95703C24.3965 1.10156 29.0677 0.173828 34.2109 0.173828C37.694 0.173828 40.9492 0.678385 43.9766 1.6875C47.0365 2.66406 49.8197 4.03125 52.3262 5.78906C54.8327 7.51432 57.0625 9.58138 59.0156 11.9902C61.0013 14.3665 62.6452 16.9707 63.9473 19.8027C65.2819 22.6348 66.291 25.6296 66.9746 28.7871C67.6582 31.9447 67.9674 35.1348 67.9023 38.3574ZM165.295 52.9082C165.295 54.8939 164.969 56.7493 164.318 58.4746C163.667 60.1999 162.772 61.7786 161.633 63.2109C160.493 64.6107 159.159 65.8639 157.629 66.9707C156.132 68.0775 154.504 69.0052 152.746 69.7539C151.021 70.5026 149.23 71.0723 147.375 71.4629C145.52 71.821 143.697 72 141.906 72H100.549V1.6875H138.342C140.002 1.6875 141.743 1.81771 143.566 2.07812C145.389 2.30599 147.163 2.68034 148.889 3.20117C150.646 3.72201 152.307 4.4056 153.869 5.25195C155.464 6.09831 156.848 7.13997 158.02 8.37695C159.224 9.58138 160.168 10.9811 160.852 12.5762C161.568 14.1712 161.926 15.9941 161.926 18.0449C161.926 19.998 161.535 21.7721 160.754 23.3672C159.973 24.9622 158.915 26.3945 157.58 27.6641C156.278 28.901 154.764 30.0078 153.039 30.9844C151.346 31.9284 149.556 32.7585 147.668 33.4746C150.044 34.1257 152.29 34.9883 154.406 36.0625C156.555 37.1367 158.426 38.4551 160.021 40.0176C161.649 41.5801 162.935 43.4355 163.879 45.584C164.823 47.6999 165.295 50.1413 165.295 52.9082ZM142.248 19.7539C142.248 15.7826 141.19 12.8854 139.074 11.0625C136.991 9.23958 134.012 8.32812 130.139 8.32812H119.934V31.1309H128.479C130.236 31.1309 131.945 30.9193 133.605 30.4961C135.266 30.0404 136.73 29.3568 138 28.4453C139.302 27.5013 140.327 26.3132 141.076 24.8809C141.857 23.4486 142.248 21.7396 142.248 19.7539ZM145.666 51.6875C145.666 49.7669 145.422 47.9766 144.934 46.3164C144.445 44.6237 143.697 43.1751 142.688 41.9707C141.678 40.7337 140.409 39.7734 138.879 39.0898C137.382 38.3737 135.607 38.0156 133.557 38.0156H119.934V65.1641H131.848C133.833 65.1641 135.673 64.8385 137.365 64.1875C139.058 63.5365 140.523 62.625 141.76 61.4531C142.997 60.2812 143.957 58.8652 144.641 57.2051C145.324 55.5449 145.666 53.7057 145.666 51.6875ZM270.305 36.7461C270.305 42.4102 269.328 47.5208 267.375 52.0781C265.422 56.6029 262.72 60.444 259.27 63.6016C255.819 66.7591 251.734 69.1842 247.014 70.877C242.294 72.5697 237.183 73.416 231.682 73.416C226.18 73.416 221.07 72.5697 216.35 70.877C211.63 69.1842 207.544 66.7591 204.094 63.6016C200.643 60.444 197.941 56.6029 195.988 52.0781C194.035 47.5208 193.059 42.4102 193.059 36.7461C193.059 30.9844 194.019 25.8411 195.939 21.3164C197.893 16.7591 200.578 12.918 203.996 9.79297C207.447 6.63542 211.532 4.22656 216.252 2.56641C220.972 0.873698 226.115 0.0273438 231.682 0.0273438C237.248 0.0273438 242.391 0.873698 247.111 2.56641C251.831 4.22656 255.9 6.63542 259.318 9.79297C262.769 12.918 265.454 16.7591 267.375 21.3164C269.328 25.8411 270.305 30.9844 270.305 36.7461ZM250.578 36.7461C250.578 34.5977 250.48 32.4004 250.285 30.1543C250.09 27.9082 249.732 25.7272 249.211 23.6113C248.69 21.4954 247.974 19.5098 247.062 17.6543C246.184 15.7988 245.044 14.1875 243.645 12.8203C242.245 11.4206 240.552 10.3301 238.566 9.54883C236.613 8.73503 234.318 8.32812 231.682 8.32812C229.012 8.32812 226.685 8.73503 224.699 9.54883C222.714 10.3301 221.021 11.4043 219.621 12.7715C218.221 14.1387 217.082 15.75 216.203 17.6055C215.324 19.4609 214.624 21.4466 214.104 23.5625C213.615 25.6458 213.273 27.8268 213.078 30.1055C212.883 32.3516 212.785 34.5651 212.785 36.7461C212.785 38.8945 212.883 41.0918 213.078 43.3379C213.273 45.584 213.632 47.765 214.152 49.8809C214.673 51.9642 215.373 53.9336 216.252 55.7891C217.163 57.6445 218.319 59.2721 219.719 60.6719C221.118 62.0391 222.795 63.1296 224.748 63.9434C226.734 64.7572 229.045 65.1641 231.682 65.1641C234.253 65.1641 236.499 64.7572 238.42 63.9434C240.34 63.097 242.001 61.974 243.4 60.5742C244.8 59.1419 245.956 57.498 246.867 55.6426C247.811 53.7546 248.544 51.7689 249.064 49.6855C249.618 47.5697 250.008 45.4049 250.236 43.1914C250.464 40.9779 250.578 38.8294 250.578 36.7461ZM322.971 1.6875C322.092 4.32422 321.327 7.05859 320.676 9.89062C320.025 12.6901 319.488 15.5059 319.064 18.3379C318.641 21.1374 318.316 23.9043 318.088 26.6387C317.893 29.373 317.795 31.9609 317.795 34.4023C317.795 36.1927 317.795 38.2109 317.795 40.457C317.827 42.6706 317.958 44.9329 318.186 47.2441C318.446 49.5553 318.853 51.8177 319.406 54.0312C319.96 56.2122 320.773 58.1654 321.848 59.8906C322.954 61.6159 324.354 62.9993 326.047 64.041C327.772 65.0827 329.904 65.6035 332.443 65.6035C334.689 65.6035 336.61 65.2292 338.205 64.4805C339.833 63.6992 341.2 62.6576 342.307 61.3555C343.446 60.0534 344.341 58.556 344.992 56.8633C345.676 55.1706 346.197 53.3965 346.555 51.541C346.945 49.6855 347.189 47.8138 347.287 45.9258C347.417 44.0052 347.482 42.1823 347.482 40.457V1.6875H366.867V37.4297C366.867 42.5404 366.053 47.293 364.426 51.6875C362.798 56.082 360.503 59.9069 357.541 63.1621C354.579 66.3848 350.998 68.9238 346.799 70.7793C342.6 72.6022 337.945 73.5137 332.834 73.5137C329.318 73.5137 326.047 73.0091 323.02 72C319.992 71.0234 317.209 69.6725 314.67 67.9473C312.163 66.1895 309.917 64.1224 307.932 61.7461C305.979 59.3372 304.335 56.7168 303 53.8848C301.698 51.0527 300.705 48.0742 300.021 44.9492C299.338 41.7917 299.029 38.6016 299.094 35.3789V34.4023C299.126 31.7982 299.387 29.1126 299.875 26.3457C300.363 23.5462 301.014 20.7467 301.828 17.9473C302.674 15.1478 303.684 12.3809 304.855 9.64648C306.027 6.87956 307.329 4.22656 308.762 1.6875H322.971ZM434.475 72H415.09V10.6719H395.949V1.6875H453.615V10.6719H434.475V72Z" fill="#303030"/>
</svg>
