<svg width="420" height="75" viewBox="0 0 420 75" fill="none" xmlns="http://www.w3.org/2000/svg">
<path d="M67.9004 20.1191L59.5508 23.6348C58.8997 21.5189 58.0208 19.582 56.9141 17.8242C55.8398 16.0664 54.5378 14.569 53.0078 13.332C51.5104 12.0625 49.8014 11.0859 47.8809 10.4023C45.9603 9.6862 43.8607 9.32812 41.582 9.32812C39.1406 9.32812 36.8945 9.73503 34.8438 10.5488C32.8255 11.3301 31.0026 12.4206 29.375 13.8203C27.7799 15.2201 26.3802 16.8477 25.1758 18.7031C23.9714 20.5586 22.9622 22.5443 22.1484 24.6602C21.3346 26.7435 20.7324 28.9082 20.3418 31.1543C19.9512 33.4004 19.7559 35.5977 19.7559 37.7461C19.7559 41.1641 20.1465 44.5658 20.9277 47.9512C21.7415 51.3366 23.0111 54.3802 24.7363 57.082C26.4941 59.7839 28.7565 61.9811 31.5234 63.6738C34.2904 65.334 37.6432 66.1641 41.582 66.1641C43.6654 66.1641 45.6348 65.8223 47.4902 65.1387C49.3457 64.4225 51.0221 63.4622 52.5195 62.2578C54.0495 61.0208 55.3841 59.5723 56.5234 57.9121C57.6628 56.252 58.5742 54.4616 59.2578 52.541L67.7051 55.9102C66.4681 59.0026 64.7754 61.7207 62.627 64.0645C60.4785 66.3757 58.0208 68.2962 55.2539 69.8262C52.5195 71.3561 49.5736 72.4954 46.416 73.2441C43.291 74.0254 40.1335 74.416 36.9434 74.416C33.4928 74.416 30.1725 73.9928 26.9824 73.1465C23.8249 72.3001 20.8789 71.0957 18.1445 69.5332C15.4102 67.9707 12.9199 66.0827 10.6738 63.8691C8.46029 61.6556 6.55599 59.1979 4.96094 56.4961C3.39844 53.7943 2.17773 50.8646 1.29883 47.707C0.452474 44.5169 0.0292969 41.1966 0.0292969 37.7461C0.0292969 34.2956 0.452474 30.9915 1.29883 27.834C2.17773 24.6439 3.39844 21.6979 4.96094 18.9961C6.55599 16.2617 8.46029 13.7878 10.6738 11.5742C12.9199 9.36068 15.4102 7.47266 18.1445 5.91016C20.8789 4.34766 23.8249 3.14323 26.9824 2.29688C30.1725 1.45052 33.4928 1.02734 36.9434 1.02734C40.2637 1.02734 43.5026 1.41797 46.6602 2.19922C49.8503 2.98047 52.8125 4.16862 55.5469 5.76367C58.2812 7.32617 60.7064 9.31185 62.8223 11.7207C64.9707 14.097 66.6634 16.8965 67.9004 20.1191ZM118.613 73H99.2285V2.6875H118.613V33.4004H144.297V2.6875H163.682V73H144.297V42.3359H118.613V73ZM250.088 73H199.6V2.6875H250.088V11.6719H218.984V33.4004H243.008V42.3359H218.984V64.0156H250.088V73ZM301.484 73H282.1V2.6875H332.588V11.6719H301.484V33.4004H325.508V42.3359H301.484V73ZM419.775 51.5156C419.775 54.543 419.385 57.2122 418.604 59.5234C417.855 61.8346 416.781 63.8366 415.381 65.5293C414.014 67.222 412.386 68.638 410.498 69.7773C408.61 70.9167 406.543 71.8281 404.297 72.5117C402.083 73.1953 399.723 73.6836 397.217 73.9766C394.743 74.2695 392.22 74.416 389.648 74.416C386.263 74.416 383.138 74.1556 380.273 73.6348C377.409 73.1465 374.707 72.3652 372.168 71.291C369.661 70.1842 367.236 68.7682 364.893 67.043C362.581 65.3177 360.27 63.2181 357.959 60.7441L367.92 50.6367C368.831 52.8828 370.085 54.9661 371.68 56.8867C373.275 58.7747 375.016 60.4023 376.904 61.7695C378.825 63.1367 380.811 64.2109 382.861 64.9922C384.912 65.7734 386.849 66.1641 388.672 66.1641C390.82 66.1641 392.839 66.0176 394.727 65.7246C396.615 65.3991 398.258 64.8783 399.658 64.1621C401.058 63.446 402.148 62.502 402.93 61.3301C403.743 60.1257 404.15 58.6283 404.15 56.8379C404.15 55.4707 403.841 54.2988 403.223 53.3223C402.604 52.3457 401.79 51.5156 400.781 50.832C399.805 50.1159 398.682 49.5137 397.412 49.0254C396.143 48.5371 394.84 48.1302 393.506 47.8047C392.204 47.4466 390.918 47.1374 389.648 46.877C388.379 46.584 387.256 46.291 386.279 45.998C384.359 45.4447 382.357 44.8587 380.273 44.2402C378.19 43.5892 376.139 42.8568 374.121 42.043C372.103 41.2292 370.182 40.3014 368.359 39.2598C366.569 38.1855 364.99 36.9323 363.623 35.5C362.256 34.0352 361.165 32.3587 360.352 30.4707C359.538 28.5501 359.131 26.3529 359.131 23.8789C359.131 20.9167 359.489 18.2962 360.205 16.0176C360.954 13.7064 361.995 11.7044 363.33 10.0117C364.665 8.31901 366.243 6.90299 368.066 5.76367C369.889 4.5918 371.891 3.66406 374.072 2.98047C376.253 2.26432 378.564 1.75977 381.006 1.4668C383.48 1.14128 386.003 0.978516 388.574 0.978516C392.09 0.978516 395.28 1.30404 398.145 1.95508C401.042 2.60612 403.711 3.53385 406.152 4.73828C408.594 5.94271 410.824 7.39128 412.842 9.08398C414.893 10.7441 416.813 12.5996 418.604 14.6504L408.643 24.7578C407.861 22.4141 406.771 20.2982 405.371 18.4102C404.004 16.5221 402.474 14.9108 400.781 13.5762C399.089 12.209 397.314 11.1673 395.459 10.4512C393.604 9.70247 391.813 9.32812 390.088 9.32812C387.842 9.32812 385.775 9.49089 383.887 9.81641C381.999 10.1094 380.371 10.6139 379.004 11.3301C377.669 12.0137 376.628 12.9577 375.879 14.1621C375.13 15.334 374.756 16.7988 374.756 18.5566C374.756 19.9564 375.033 21.1445 375.586 22.1211C376.139 23.0977 376.872 23.9277 377.783 24.6113C378.727 25.2949 379.785 25.8646 380.957 26.3203C382.129 26.7435 383.333 27.1178 384.57 27.4434C385.84 27.7689 387.077 28.0618 388.281 28.3223C389.518 28.5501 390.641 28.8105 391.65 29.1035C393.604 29.6569 395.654 30.2428 397.803 30.8613C399.951 31.4798 402.067 32.2122 404.15 33.0586C406.234 33.8724 408.219 34.8164 410.107 35.8906C411.995 36.9648 413.656 38.2507 415.088 39.748C416.52 41.2129 417.66 42.9219 418.506 44.875C419.352 46.7956 419.775 49.0091 419.775 51.5156Z" fill="#303030"/>
</svg>
