<svg width="457" height="75" viewBox="0 0 457 75" fill="none" xmlns="http://www.w3.org/2000/svg">
<path d="M69.123 37.7461C69.123 41.1641 68.6673 44.4193 67.7559 47.5117C66.8444 50.5716 65.5586 53.4036 63.8984 56.0078C62.2708 58.612 60.3177 60.972 58.0391 63.0879C55.7604 65.1712 53.2376 66.9453 50.4707 68.4102C47.7363 69.875 44.7904 71.0143 41.6328 71.8281C38.5078 72.6094 35.2852 73 31.9648 73H0.958984V2.6875H31.9648C35.2852 2.6875 38.5078 3.07812 41.6328 3.85938C44.7578 4.64062 47.6875 5.76367 50.4219 7.22852C53.1888 8.66081 55.7116 10.4186 57.9902 12.502C60.3014 14.5853 62.2708 16.929 63.8984 19.5332C65.5586 22.1048 66.8444 24.9368 67.7559 28.0293C68.6673 31.0892 69.123 34.3281 69.123 37.7461ZM49.4453 37.7461C49.4453 33.9375 48.9733 30.3242 48.0293 26.9062C47.1178 23.4557 45.6855 20.4284 43.7324 17.8242C41.7793 15.2201 39.2891 13.153 36.2617 11.623C33.2669 10.0931 29.6699 9.32812 25.4707 9.32812H20.3438V66.1641H25.4707C29.6048 66.1641 33.1693 65.3991 36.1641 63.8691C39.1914 62.3066 41.6816 60.2233 43.6348 57.6191C45.6204 54.9824 47.0853 51.9551 48.0293 48.5371C48.9733 45.1191 49.4453 41.5221 49.4453 37.7461ZM120.422 73H101.037V2.6875H120.422V73ZM214.006 51.5156C214.006 54.543 213.615 57.2122 212.834 59.5234C212.085 61.8346 211.011 63.8366 209.611 65.5293C208.244 67.222 206.617 68.638 204.729 69.7773C202.84 70.9167 200.773 71.8281 198.527 72.5117C196.314 73.1953 193.954 73.6836 191.447 73.9766C188.973 74.2695 186.451 74.416 183.879 74.416C180.493 74.416 177.368 74.1556 174.504 73.6348C171.639 73.1465 168.938 72.3652 166.398 71.291C163.892 70.1842 161.467 68.7682 159.123 67.043C156.812 65.3177 154.501 63.2181 152.189 60.7441L162.15 50.6367C163.062 52.8828 164.315 54.9661 165.91 56.8867C167.505 58.7747 169.247 60.4023 171.135 61.7695C173.055 63.1367 175.041 64.2109 177.092 64.9922C179.143 65.7734 181.079 66.1641 182.902 66.1641C185.051 66.1641 187.069 66.0176 188.957 65.7246C190.845 65.3991 192.489 64.8783 193.889 64.1621C195.288 63.446 196.379 62.502 197.16 61.3301C197.974 60.1257 198.381 58.6283 198.381 56.8379C198.381 55.4707 198.072 54.2988 197.453 53.3223C196.835 52.3457 196.021 51.5156 195.012 50.832C194.035 50.1159 192.912 49.5137 191.643 49.0254C190.373 48.5371 189.071 48.1302 187.736 47.8047C186.434 47.4466 185.148 47.1374 183.879 46.877C182.609 46.584 181.486 46.291 180.51 45.998C178.589 45.4447 176.587 44.8587 174.504 44.2402C172.421 43.5892 170.37 42.8568 168.352 42.043C166.333 41.2292 164.413 40.3014 162.59 39.2598C160.799 38.1855 159.221 36.9323 157.854 35.5C156.486 34.0352 155.396 32.3587 154.582 30.4707C153.768 28.5501 153.361 26.3529 153.361 23.8789C153.361 20.9167 153.719 18.2962 154.436 16.0176C155.184 13.7064 156.226 11.7044 157.561 10.0117C158.895 8.31901 160.474 6.90299 162.297 5.76367C164.12 4.5918 166.122 3.66406 168.303 2.98047C170.484 2.26432 172.795 1.75977 175.236 1.4668C177.71 1.14128 180.233 0.978516 182.805 0.978516C186.32 0.978516 189.51 1.30404 192.375 1.95508C195.272 2.60612 197.941 3.53385 200.383 4.73828C202.824 5.94271 205.054 7.39128 207.072 9.08398C209.123 10.7441 211.044 12.5996 212.834 14.6504L202.873 24.7578C202.092 22.4141 201.001 20.2982 199.602 18.4102C198.234 16.5221 196.704 14.9108 195.012 13.5762C193.319 12.209 191.545 11.1673 189.689 10.4512C187.834 9.70247 186.044 9.32812 184.318 9.32812C182.072 9.32812 180.005 9.49089 178.117 9.81641C176.229 10.1094 174.602 10.6139 173.234 11.3301C171.9 12.0137 170.858 12.9577 170.109 14.1621C169.361 15.334 168.986 16.7988 168.986 18.5566C168.986 19.9564 169.263 21.1445 169.816 22.1211C170.37 23.0977 171.102 23.9277 172.014 24.6113C172.958 25.2949 174.016 25.8646 175.188 26.3203C176.359 26.7435 177.564 27.1178 178.801 27.4434C180.07 27.7689 181.307 28.0618 182.512 28.3223C183.749 28.5501 184.872 28.8105 185.881 29.1035C187.834 29.6569 189.885 30.2428 192.033 30.8613C194.182 31.4798 196.298 32.2122 198.381 33.0586C200.464 33.8724 202.45 34.8164 204.338 35.8906C206.226 36.9648 207.886 38.2507 209.318 39.748C210.751 41.2129 211.89 42.9219 212.736 44.875C213.583 46.7956 214.006 49.0091 214.006 51.5156ZM265.5 73H246.115V2.6875H265.5V33.4004H291.184V2.6875H310.568V73H291.184V42.3359H265.5V73ZM396.975 73H346.486V2.6875H396.975V11.6719H365.871V33.4004H389.895V42.3359H365.871V64.0156H396.975V73ZM486.604 51.5156C486.604 54.543 486.213 57.2122 485.432 59.5234C484.683 61.8346 483.609 63.8366 482.209 65.5293C480.842 67.222 479.214 68.638 477.326 69.7773C475.438 70.9167 473.371 71.8281 471.125 72.5117C468.911 73.1953 466.551 73.6836 464.045 73.9766C461.571 74.2695 459.048 74.416 456.477 74.416C453.091 74.416 449.966 74.1556 447.102 73.6348C444.237 73.1465 441.535 72.3652 438.996 71.291C436.49 70.1842 434.064 68.7682 431.721 67.043C429.41 65.3177 427.098 63.2181 424.787 60.7441L434.748 50.6367C435.66 52.8828 436.913 54.9661 438.508 56.8867C440.103 58.7747 441.844 60.4023 443.732 61.7695C445.653 63.1367 447.639 64.2109 449.689 64.9922C451.74 65.7734 453.677 66.1641 455.5 66.1641C457.648 66.1641 459.667 66.0176 461.555 65.7246C463.443 65.3991 465.087 64.8783 466.486 64.1621C467.886 63.446 468.977 62.502 469.758 61.3301C470.572 60.1257 470.979 58.6283 470.979 56.8379C470.979 55.4707 470.669 54.2988 470.051 53.3223C469.432 52.3457 468.618 51.5156 467.609 50.832C466.633 50.1159 465.51 49.5137 464.24 49.0254C462.971 48.5371 461.669 48.1302 460.334 47.8047C459.032 47.4466 457.746 47.1374 456.477 46.877C455.207 46.584 454.084 46.291 453.107 45.998C451.187 45.4447 449.185 44.8587 447.102 44.2402C445.018 43.5892 442.967 42.8568 440.949 42.043C438.931 41.2292 437.01 40.3014 435.188 39.2598C433.397 38.1855 431.818 36.9323 430.451 35.5C429.084 34.0352 427.993 32.3587 427.18 30.4707C426.366 28.5501 425.959 26.3529 425.959 23.8789C425.959 20.9167 426.317 18.2962 427.033 16.0176C427.782 13.7064 428.824 11.7044 430.158 10.0117C431.493 8.31901 433.072 6.90299 434.895 5.76367C436.717 4.5918 438.719 3.66406 440.9 2.98047C443.081 2.26432 445.393 1.75977 447.834 1.4668C450.308 1.14128 452.831 0.978516 455.402 0.978516C458.918 0.978516 462.108 1.30404 464.973 1.95508C467.87 2.60612 470.539 3.53385 472.98 4.73828C475.422 5.94271 477.652 7.39128 479.67 9.08398C481.721 10.7441 483.641 12.5996 485.432 14.6504L475.471 24.7578C474.689 22.4141 473.599 20.2982 472.199 18.4102C470.832 16.5221 469.302 14.9108 467.609 13.5762C465.917 12.209 464.143 11.1673 462.287 10.4512C460.432 9.70247 458.641 9.32812 456.916 9.32812C454.67 9.32812 452.603 9.49089 450.715 9.81641C448.827 10.1094 447.199 10.6139 445.832 11.3301C444.497 12.0137 443.456 12.9577 442.707 14.1621C441.958 15.334 441.584 16.7988 441.584 18.5566C441.584 19.9564 441.861 21.1445 442.414 22.1211C442.967 23.0977 443.7 23.9277 444.611 24.6113C445.555 25.2949 446.613 25.8646 447.785 26.3203C448.957 26.7435 450.161 27.1178 451.398 27.4434C452.668 27.7689 453.905 28.0618 455.109 28.3223C456.346 28.5501 457.469 28.8105 458.479 29.1035C460.432 29.6569 462.482 30.2428 464.631 30.8613C466.779 31.4798 468.895 32.2122 470.979 33.0586C473.062 33.8724 475.048 34.8164 476.936 35.8906C478.824 36.9648 480.484 38.2507 481.916 39.748C483.348 41.2129 484.488 42.9219 485.334 44.875C486.18 46.7956 486.604 49.0091 486.604 51.5156Z" fill="#303030"/>
</svg>
