<svg width="387" height="74" viewBox="0 0 387 74" fill="none" xmlns="http://www.w3.org/2000/svg">
<path d="M37.1582 72H19.4336L0.976562 1.6875H20.752L32.4219 51.5898L42.7734 1.6875H60.5469L71.875 52.8594L84.6191 1.6875H96.582L76.123 72H58.3496L48.4375 27.0781L37.1582 72ZM198.32 36.7461C198.32 42.4102 197.344 47.5208 195.391 52.0781C193.438 56.6029 190.736 60.444 187.285 63.6016C183.835 66.7591 179.749 69.1842 175.029 70.877C170.309 72.5697 165.199 73.416 159.697 73.416C154.196 73.416 149.085 72.5697 144.365 70.877C139.645 69.1842 135.56 66.7591 132.109 63.6016C128.659 60.444 125.957 56.6029 124.004 52.0781C122.051 47.5208 121.074 42.4102 121.074 36.7461C121.074 30.9844 122.035 25.8411 123.955 21.3164C125.908 16.7591 128.594 12.918 132.012 9.79297C135.462 6.63542 139.548 4.22656 144.268 2.56641C148.988 0.873698 154.131 0.0273438 159.697 0.0273438C165.264 0.0273438 170.407 0.873698 175.127 2.56641C179.847 4.22656 183.916 6.63542 187.334 9.79297C190.785 12.918 193.47 16.7591 195.391 21.3164C197.344 25.8411 198.32 30.9844 198.32 36.7461ZM178.594 36.7461C178.594 34.5977 178.496 32.4004 178.301 30.1543C178.105 27.9082 177.747 25.7272 177.227 23.6113C176.706 21.4954 175.99 19.5098 175.078 17.6543C174.199 15.7988 173.06 14.1875 171.66 12.8203C170.26 11.4206 168.568 10.3301 166.582 9.54883C164.629 8.73503 162.334 8.32812 159.697 8.32812C157.028 8.32812 154.701 8.73503 152.715 9.54883C150.729 10.3301 149.036 11.4043 147.637 12.7715C146.237 14.1387 145.098 15.75 144.219 17.6055C143.34 19.4609 142.64 21.4466 142.119 23.5625C141.631 25.6458 141.289 27.8268 141.094 30.1055C140.898 32.3516 140.801 34.5651 140.801 36.7461C140.801 38.8945 140.898 41.0918 141.094 43.3379C141.289 45.584 141.647 47.765 142.168 49.8809C142.689 51.9642 143.389 53.9336 144.268 55.7891C145.179 57.6445 146.335 59.2721 147.734 60.6719C149.134 62.0391 150.811 63.1296 152.764 63.9434C154.749 64.7572 157.061 65.1641 159.697 65.1641C162.269 65.1641 164.515 64.7572 166.436 63.9434C168.356 63.097 170.016 61.974 171.416 60.5742C172.816 59.1419 173.971 57.498 174.883 55.6426C175.827 53.7546 176.559 51.7689 177.08 49.6855C177.633 47.5697 178.024 45.4049 178.252 43.1914C178.48 40.9779 178.594 38.8294 178.594 36.7461ZM249.766 72H230.381V1.6875H264.951C268.206 1.6875 271.348 2.07812 274.375 2.85938C277.402 3.60807 280.072 4.8125 282.383 6.47266C284.727 8.10026 286.582 10.2161 287.949 12.8203C289.349 15.4245 290.049 18.582 290.049 22.293C290.049 25.1901 289.43 27.9245 288.193 30.4961C286.989 33.0352 285.361 35.3138 283.311 37.332C281.292 39.3177 278.965 40.9779 276.328 42.3125C273.691 43.6146 270.957 44.4772 268.125 44.9004C269.395 47.0488 270.713 49.0833 272.08 51.0039C273.48 52.9245 274.88 54.7311 276.279 56.4238C277.712 58.084 279.128 59.6302 280.527 61.0625C281.927 62.4622 283.262 63.748 284.531 64.9199C287.526 67.6543 290.488 70.0143 293.418 72H269.248C267.295 70.1445 265.439 67.9147 263.682 65.3105C262.184 63.097 260.671 60.3626 259.141 57.1074C257.643 53.8197 256.488 50.0273 255.674 45.7305H249.766V72ZM270.371 22.293C270.371 17.5729 269.215 14.1061 266.904 11.8926C264.626 9.67904 261.191 8.57227 256.602 8.57227H249.766V39.0898H256.602C259.043 39.0898 261.126 38.6341 262.852 37.7227C264.609 36.7786 266.042 35.5417 267.148 34.0117C268.255 32.4492 269.069 30.6589 269.59 28.6406C270.111 26.6224 270.371 24.5065 270.371 22.293ZM341.934 72H322.549V1.6875H341.934V35.1836C347.923 30.5938 353.506 25.4993 358.682 19.9004C363.89 14.3014 368.366 8.21419 372.109 1.63867H385.342C381.891 7.5306 377.936 13.0319 373.477 18.1426C369.017 23.2533 364.167 27.9896 358.926 32.3516L387.002 72H366.787L345.645 42.1172C345.026 42.5404 344.408 42.9473 343.789 43.3379C343.203 43.7285 342.585 44.1191 341.934 44.5098V72Z" fill="#303030"/>
</svg>
