<svg width="495" height="75" viewBox="0 0 495 75" fill="none" xmlns="http://www.w3.org/2000/svg">
<path d="M20.3438 73H0.958984V2.6875H35.5293C38.7845 2.6875 41.9258 3.07812 44.9531 3.85938C47.9805 4.60807 50.6497 5.8125 52.9609 7.47266C55.3047 9.10026 57.1602 11.2161 58.5273 13.8203C59.9271 16.4245 60.627 19.582 60.627 23.293C60.627 26.1901 60.0085 28.9245 58.7715 31.4961C57.5671 34.0352 55.9395 36.3138 53.8887 38.332C51.8704 40.3177 49.543 41.9779 46.9062 43.3125C44.2695 44.6146 41.5352 45.4772 38.7031 45.9004C39.9727 48.0488 41.291 50.0833 42.6582 52.0039C44.0579 53.9245 45.4577 55.7311 46.8574 57.4238C48.2897 59.084 49.7057 60.6302 51.1055 62.0625C52.5052 63.4622 53.8398 64.748 55.1094 65.9199C58.1042 68.6543 61.0664 71.0143 63.9961 73H39.8262C37.873 71.1445 36.0176 68.9147 34.2598 66.3105C32.7624 64.097 31.2487 61.3626 29.7188 58.1074C28.2214 54.8197 27.0658 51.0273 26.252 46.7305H20.3438V73ZM40.9492 23.293C40.9492 18.5729 39.7936 15.1061 37.4824 12.8926C35.2038 10.679 31.7695 9.57227 27.1797 9.57227H20.3438V40.0898H27.1797C29.6211 40.0898 31.7044 39.6341 33.4297 38.7227C35.1875 37.7786 36.6198 36.5417 37.7266 35.0117C38.8333 33.4492 39.6471 31.6589 40.168 29.6406C40.6888 27.6224 40.9492 25.5065 40.9492 23.293ZM143.615 73H93.127V2.6875H143.615V11.6719H112.512V33.4004H136.535V42.3359H112.512V64.0156H143.615V73ZM237.834 20.1191L229.484 23.6348C228.833 21.5189 227.954 19.582 226.848 17.8242C225.773 16.0664 224.471 14.569 222.941 13.332C221.444 12.0625 219.735 11.0859 217.814 10.4023C215.894 9.6862 213.794 9.32812 211.516 9.32812C209.074 9.32812 206.828 9.73503 204.777 10.5488C202.759 11.3301 200.936 12.4206 199.309 13.8203C197.714 15.2201 196.314 16.8477 195.109 18.7031C193.905 20.5586 192.896 22.5443 192.082 24.6602C191.268 26.7435 190.666 28.9082 190.275 31.1543C189.885 33.4004 189.689 35.5977 189.689 37.7461C189.689 41.1641 190.08 44.5658 190.861 47.9512C191.675 51.3366 192.945 54.3802 194.67 57.082C196.428 59.7839 198.69 61.9811 201.457 63.6738C204.224 65.334 207.577 66.1641 211.516 66.1641C213.599 66.1641 215.568 65.8223 217.424 65.1387C219.279 64.4225 220.956 63.4622 222.453 62.2578C223.983 61.0208 225.318 59.5723 226.457 57.9121C227.596 56.252 228.508 54.4616 229.191 52.541L237.639 55.9102C236.402 59.0026 234.709 61.7207 232.561 64.0645C230.412 66.3757 227.954 68.2962 225.188 69.8262C222.453 71.3561 219.507 72.4954 216.35 73.2441C213.225 74.0254 210.067 74.416 206.877 74.416C203.426 74.416 200.106 73.9928 196.916 73.1465C193.758 72.3001 190.812 71.0957 188.078 69.5332C185.344 67.9707 182.854 66.0827 180.607 63.8691C178.394 61.6556 176.49 59.1979 174.895 56.4961C173.332 53.7943 172.111 50.8646 171.232 47.707C170.386 44.5169 169.963 41.1966 169.963 37.7461C169.963 34.2956 170.386 30.9915 171.232 27.834C172.111 24.6439 173.332 21.6979 174.895 18.9961C176.49 16.2617 178.394 13.7878 180.607 11.5742C182.854 9.36068 185.344 7.47266 188.078 5.91016C190.812 4.34766 193.758 3.14323 196.916 2.29688C200.106 1.45052 203.426 1.02734 206.877 1.02734C210.197 1.02734 213.436 1.41797 216.594 2.19922C219.784 2.98047 222.746 4.16862 225.48 5.76367C228.215 7.32617 230.64 9.31185 232.756 11.7207C234.904 14.097 236.597 16.8965 237.834 20.1191ZM288.547 73H269.162V2.6875H288.547V73ZM343.898 73H324.514V2.6875H362.502C365.79 2.6875 368.931 3.12695 371.926 4.00586C374.953 4.88477 377.622 6.2194 379.934 8.00977C382.245 9.76758 384.084 11.9974 385.451 14.6992C386.851 17.3685 387.551 20.5098 387.551 24.123C387.551 26.4017 387.225 28.5501 386.574 30.5684C385.923 32.554 385.012 34.377 383.84 36.0371C382.701 37.6973 381.35 39.1947 379.787 40.5293C378.225 41.8639 376.516 42.987 374.66 43.8984C372.805 44.8099 370.835 45.5098 368.752 45.998C366.701 46.4863 364.618 46.7305 362.502 46.7305H343.898V73ZM367.922 24.123C367.922 19.5983 366.766 16.0501 364.455 13.4785C362.176 10.8743 358.726 9.57227 354.104 9.57227H343.898V40.0898H354.104C356.577 40.0898 358.677 39.6992 360.402 38.918C362.16 38.1042 363.592 36.9811 364.699 35.5488C365.806 34.1165 366.62 32.4401 367.141 30.5195C367.661 28.5664 367.922 26.4342 367.922 24.123ZM468.146 73H417.658V2.6875H468.146V11.6719H437.043V33.4004H461.066V42.3359H437.043V64.0156H468.146V73ZM557.775 51.5156C557.775 54.543 557.385 57.2122 556.604 59.5234C555.855 61.8346 554.781 63.8366 553.381 65.5293C552.014 67.222 550.386 68.638 548.498 69.7773C546.61 70.9167 544.543 71.8281 542.297 72.5117C540.083 73.1953 537.723 73.6836 535.217 73.9766C532.743 74.2695 530.22 74.416 527.648 74.416C524.263 74.416 521.138 74.1556 518.273 73.6348C515.409 73.1465 512.707 72.3652 510.168 71.291C507.661 70.1842 505.236 68.7682 502.893 67.043C500.581 65.3177 498.27 63.2181 495.959 60.7441L505.92 50.6367C506.831 52.8828 508.085 54.9661 509.68 56.8867C511.275 58.7747 513.016 60.4023 514.904 61.7695C516.825 63.1367 518.811 64.2109 520.861 64.9922C522.912 65.7734 524.849 66.1641 526.672 66.1641C528.82 66.1641 530.839 66.0176 532.727 65.7246C534.615 65.3991 536.258 64.8783 537.658 64.1621C539.058 63.446 540.148 62.502 540.93 61.3301C541.743 60.1257 542.15 58.6283 542.15 56.8379C542.15 55.4707 541.841 54.2988 541.223 53.3223C540.604 52.3457 539.79 51.5156 538.781 50.832C537.805 50.1159 536.682 49.5137 535.412 49.0254C534.143 48.5371 532.84 48.1302 531.506 47.8047C530.204 47.4466 528.918 47.1374 527.648 46.877C526.379 46.584 525.256 46.291 524.279 45.998C522.359 45.4447 520.357 44.8587 518.273 44.2402C516.19 43.5892 514.139 42.8568 512.121 42.043C510.103 41.2292 508.182 40.3014 506.359 39.2598C504.569 38.1855 502.99 36.9323 501.623 35.5C500.256 34.0352 499.165 32.3587 498.352 30.4707C497.538 28.5501 497.131 26.3529 497.131 23.8789C497.131 20.9167 497.489 18.2962 498.205 16.0176C498.954 13.7064 499.995 11.7044 501.33 10.0117C502.665 8.31901 504.243 6.90299 506.066 5.76367C507.889 4.5918 509.891 3.66406 512.072 2.98047C514.253 2.26432 516.564 1.75977 519.006 1.4668C521.48 1.14128 524.003 0.978516 526.574 0.978516C530.09 0.978516 533.28 1.30404 536.145 1.95508C539.042 2.60612 541.711 3.53385 544.152 4.73828C546.594 5.94271 548.824 7.39128 550.842 9.08398C552.893 10.7441 554.813 12.5996 556.604 14.6504L546.643 24.7578C545.861 22.4141 544.771 20.2982 543.371 18.4102C542.004 16.5221 540.474 14.9108 538.781 13.5762C537.089 12.209 535.314 11.1673 533.459 10.4512C531.604 9.70247 529.813 9.32812 528.088 9.32812C525.842 9.32812 523.775 9.49089 521.887 9.81641C519.999 10.1094 518.371 10.6139 517.004 11.3301C515.669 12.0137 514.628 12.9577 513.879 14.1621C513.13 15.334 512.756 16.7988 512.756 18.5566C512.756 19.9564 513.033 21.1445 513.586 22.1211C514.139 23.0977 514.872 23.9277 515.783 24.6113C516.727 25.2949 517.785 25.8646 518.957 26.3203C520.129 26.7435 521.333 27.1178 522.57 27.4434C523.84 27.7689 525.077 28.0618 526.281 28.3223C527.518 28.5501 528.641 28.8105 529.65 29.1035C531.604 29.6569 533.654 30.2428 535.803 30.8613C537.951 31.4798 540.067 32.2122 542.15 33.0586C544.234 33.8724 546.219 34.8164 548.107 35.8906C549.995 36.9648 551.656 38.2507 553.088 39.748C554.52 41.2129 555.66 42.9219 556.506 44.875C557.352 46.7956 557.775 49.0091 557.775 51.5156Z" fill="#303030"/>
</svg>
