<svg width="398" height="88" viewBox="0 0 398 88" fill="none" xmlns="http://www.w3.org/2000/svg">
<path d="M62.5762 51.5156C62.5762 54.543 62.1855 57.2122 61.4043 59.5234C60.6556 61.8346 59.5814 63.8366 58.1816 65.5293C56.8145 67.222 55.1868 68.638 53.2988 69.7773C51.4108 70.9167 49.3438 71.8281 47.0977 72.5117C44.8841 73.1953 42.5241 73.6836 40.0176 73.9766C37.5436 74.2695 35.0208 74.416 32.4492 74.416C29.0638 74.416 25.9388 74.1556 23.0742 73.6348C20.2096 73.1465 17.5078 72.3652 14.9688 71.291C12.4622 70.1842 10.0371 68.7682 7.69336 67.043C5.38216 65.3177 3.07096 63.2181 0.759766 60.7441L10.7207 50.6367C11.6322 52.8828 12.8854 54.9661 14.4805 56.8867C16.0755 58.7747 17.8171 60.4023 19.7051 61.7695C21.6257 63.1367 23.6113 64.2109 25.6621 64.9922C27.7129 65.7734 29.6497 66.1641 31.4727 66.1641C33.6211 66.1641 35.6393 66.0176 37.5273 65.7246C39.4154 65.3991 41.0592 64.8783 42.459 64.1621C43.8587 63.446 44.9492 62.502 45.7305 61.3301C46.5443 60.1257 46.9512 58.6283 46.9512 56.8379C46.9512 55.4707 46.6419 54.2988 46.0234 53.3223C45.4049 52.3457 44.5911 51.5156 43.582 50.832C42.6055 50.1159 41.4824 49.5137 40.2129 49.0254C38.9434 48.5371 37.6413 48.1302 36.3066 47.8047C35.0046 47.4466 33.7188 47.1374 32.4492 46.877C31.1797 46.584 30.0566 46.291 29.0801 45.998C27.1595 45.4447 25.1576 44.8587 23.0742 44.2402C20.9909 43.5892 18.9401 42.8568 16.9219 42.043C14.9036 41.2292 12.9831 40.3014 11.1602 39.2598C9.36979 38.1855 7.79102 36.9323 6.42383 35.5C5.05664 34.0352 3.96615 32.3587 3.15234 30.4707C2.33854 28.5501 1.93164 26.3529 1.93164 23.8789C1.93164 20.9167 2.28971 18.2962 3.00586 16.0176C3.75456 13.7064 4.79622 11.7044 6.13086 10.0117C7.46549 8.31901 9.04427 6.90299 10.8672 5.76367C12.6901 4.5918 14.6921 3.66406 16.873 2.98047C19.054 2.26432 21.3652 1.75977 23.8066 1.4668C26.2806 1.14128 28.8034 0.978516 31.375 0.978516C34.8906 0.978516 38.0807 1.30404 40.9453 1.95508C43.8424 2.60612 46.5117 3.53385 48.9531 4.73828C51.3945 5.94271 53.6243 7.39128 55.6426 9.08398C57.6934 10.7441 59.6139 12.5996 61.4043 14.6504L51.4434 24.7578C50.6621 22.4141 49.5716 20.2982 48.1719 18.4102C46.8047 16.5221 45.2747 14.9108 43.582 13.5762C41.8893 12.209 40.1152 11.1673 38.2598 10.4512C36.4043 9.70247 34.6139 9.32812 32.8887 9.32812C30.6426 9.32812 28.5755 9.49089 26.6875 9.81641C24.7995 10.1094 23.1719 10.6139 21.8047 11.3301C20.4701 12.0137 19.4284 12.9577 18.6797 14.1621C17.931 15.334 17.5566 16.7988 17.5566 18.5566C17.5566 19.9564 17.8333 21.1445 18.3867 22.1211C18.9401 23.0977 19.6725 23.9277 20.584 24.6113C21.528 25.2949 22.5859 25.8646 23.7578 26.3203C24.9297 26.7435 26.1341 27.1178 27.3711 27.4434C28.6406 27.7689 29.8776 28.0618 31.082 28.3223C32.319 28.5501 33.4421 28.8105 34.4512 29.1035C36.4043 29.6569 38.4551 30.2428 40.6035 30.8613C42.752 31.4798 44.8678 32.2122 46.9512 33.0586C49.0345 33.8724 51.0202 34.8164 52.9082 35.8906C54.7962 36.9648 56.4564 38.2507 57.8887 39.748C59.321 41.2129 60.4603 42.9219 61.3066 44.875C62.153 46.7956 62.5762 49.0091 62.5762 51.5156ZM168.074 37.7461C168.074 43.4102 167.098 48.5208 165.145 53.0781C163.191 57.6029 160.49 61.444 157.039 64.6016C153.589 67.7591 149.503 70.1842 144.783 71.877C140.063 73.5697 134.952 74.416 129.451 74.416C123.95 74.416 118.839 73.5697 114.119 71.877C109.399 70.1842 105.314 67.7591 101.863 64.6016C98.4128 61.444 95.7109 57.6029 93.7578 53.0781C91.8047 48.5208 90.8281 43.4102 90.8281 37.7461C90.8281 31.9844 91.7884 26.8411 93.709 22.3164C95.6621 17.7591 98.3477 13.918 101.766 10.793C105.216 7.63542 109.301 5.22656 114.021 3.56641C118.742 1.8737 123.885 1.02734 129.451 1.02734C135.018 1.02734 140.161 1.8737 144.881 3.56641C149.601 5.22656 153.67 7.63542 157.088 10.793C160.538 13.918 163.224 17.7591 165.145 22.3164C167.098 26.8411 168.074 31.9844 168.074 37.7461ZM148.348 37.7461C148.348 35.5977 148.25 33.4004 148.055 31.1543C147.859 28.9082 147.501 26.7272 146.98 24.6113C146.46 22.4954 145.743 20.5098 144.832 18.6543C143.953 16.7988 142.814 15.1875 141.414 13.8203C140.014 12.4206 138.322 11.3301 136.336 10.5488C134.383 9.73503 132.088 9.32812 129.451 9.32812C126.782 9.32812 124.454 9.73503 122.469 10.5488C120.483 11.3301 118.79 12.4043 117.391 13.7715C115.991 15.1387 114.852 16.75 113.973 18.6055C113.094 20.4609 112.394 22.4466 111.873 24.5625C111.385 26.6458 111.043 28.8268 110.848 31.1055C110.652 33.3516 110.555 35.5651 110.555 37.7461C110.555 39.8945 110.652 42.0918 110.848 44.3379C111.043 46.584 111.401 48.765 111.922 50.8809C112.443 52.9642 113.143 54.9336 114.021 56.7891C114.933 58.6445 116.089 60.2721 117.488 61.6719C118.888 63.0391 120.564 64.1296 122.518 64.9434C124.503 65.7572 126.814 66.1641 129.451 66.1641C132.023 66.1641 134.269 65.7572 136.189 64.9434C138.11 64.097 139.77 62.974 141.17 61.5742C142.57 60.1419 143.725 58.498 144.637 56.6426C145.581 54.7546 146.313 52.7689 146.834 50.6855C147.387 48.5697 147.778 46.4049 148.006 44.1914C148.234 41.9779 148.348 39.8294 148.348 37.7461ZM264.002 20.1191L255.652 23.6348C255.001 21.5189 254.122 19.582 253.016 17.8242C251.941 16.0664 250.639 14.569 249.109 13.332C247.612 12.0625 245.903 11.0859 243.982 10.4023C242.062 9.6862 239.962 9.32812 237.684 9.32812C235.242 9.32812 232.996 9.73503 230.945 10.5488C228.927 11.3301 227.104 12.4206 225.477 13.8203C223.882 15.2201 222.482 16.8477 221.277 18.7031C220.073 20.5586 219.064 22.5443 218.25 24.6602C217.436 26.7435 216.834 28.9082 216.443 31.1543C216.053 33.4004 215.857 35.5977 215.857 37.7461C215.857 41.1641 216.248 44.5658 217.029 47.9512C217.843 51.3366 219.113 54.3802 220.838 57.082C222.596 59.7839 224.858 61.9811 227.625 63.6738C230.392 65.334 233.745 66.1641 237.684 66.1641C239.767 66.1641 241.736 65.8223 243.592 65.1387C245.447 64.4225 247.124 63.4622 248.621 62.2578C250.151 61.0208 251.486 59.5723 252.625 57.9121C253.764 56.252 254.676 54.4616 255.359 52.541L263.807 55.9102C262.57 59.0026 260.877 61.7207 258.729 64.0645C256.58 66.3757 254.122 68.2962 251.355 69.8262C248.621 71.3561 245.675 72.4954 242.518 73.2441C239.393 74.0254 236.235 74.416 233.045 74.416C229.594 74.416 226.274 73.9928 223.084 73.1465C219.926 72.3001 216.98 71.0957 214.246 69.5332C211.512 67.9707 209.021 66.0827 206.775 63.8691C204.562 61.6556 202.658 59.1979 201.062 56.4961C199.5 53.7943 198.279 50.8646 197.4 47.707C196.554 44.5169 196.131 41.1966 196.131 37.7461C196.131 34.2956 196.554 30.9915 197.4 27.834C198.279 24.6439 199.5 21.6979 201.062 18.9961C202.658 16.2617 204.562 13.7878 206.775 11.5742C209.021 9.36068 211.512 7.47266 214.246 5.91016C216.98 4.34766 219.926 3.14323 223.084 2.29688C226.274 1.45052 229.594 1.02734 233.045 1.02734C236.365 1.02734 239.604 1.41797 242.762 2.19922C245.952 2.98047 248.914 4.16862 251.648 5.76367C254.383 7.32617 256.808 9.31185 258.924 11.7207C261.072 14.097 262.765 16.8965 264.002 20.1191ZM314.715 73H295.33V2.6875H314.715V73ZM417.625 39.3574V40.2852C417.56 43.0195 417.267 45.8516 416.746 48.7812C416.258 51.7109 415.558 54.6406 414.646 57.5703C413.735 60.5 412.645 63.3971 411.375 66.2617C410.105 69.1263 408.673 71.8607 407.078 74.4648C405.516 77.1016 403.823 79.5592 402 81.8379C400.177 84.1491 398.257 86.1836 396.238 87.9414L388.963 83.7422C390.102 81.8216 391.128 79.722 392.039 77.4434C392.983 75.1973 393.829 72.8372 394.578 70.3633C395.327 67.8893 395.962 65.3503 396.482 62.7461C397.036 60.1419 397.492 57.554 397.85 54.9824C398.208 52.4108 398.468 49.888 398.631 47.4141C398.826 44.9076 398.924 42.5312 398.924 40.2852C398.924 38.5273 398.908 36.5417 398.875 34.3281C398.875 32.082 398.745 29.8034 398.484 27.4922C398.257 25.181 397.866 22.9349 397.312 20.7539C396.759 18.5404 395.929 16.571 394.822 14.8457C393.748 13.1204 392.348 11.737 390.623 10.6953C388.93 9.65365 386.814 9.13281 384.275 9.13281C382.029 9.13281 380.092 9.52344 378.465 10.3047C376.87 11.0534 375.503 12.0788 374.363 13.3809C373.257 14.6504 372.361 16.1315 371.678 17.8242C371.027 19.5169 370.506 21.3073 370.115 23.1953C369.757 25.0508 369.513 26.9388 369.383 28.8594C369.285 30.7474 369.236 32.5378 369.236 34.2305V47.8535H390.281V55.9102H369.236V73H349.852V37.2578C349.852 32.1471 350.665 27.3945 352.293 23C353.921 18.6055 356.215 14.7969 359.178 11.5742C362.173 8.31901 365.753 5.77995 369.92 3.95703C374.119 2.10156 378.79 1.17383 383.934 1.17383C387.417 1.17383 390.672 1.67839 393.699 2.6875C396.759 3.66406 399.542 5.03125 402.049 6.78906C404.555 8.51432 406.785 10.5814 408.738 12.9902C410.724 15.3665 412.368 17.9707 413.67 20.8027C415.005 23.6348 416.014 26.6296 416.697 29.7871C417.381 32.9447 417.69 36.1348 417.625 39.3574ZM500.76 73H450.271V2.6875H469.656V64.0645H500.76V73Z" fill="#303030"/>
</svg>
